<svg width="24" height="24" viewBox="0 0 24 24" fill="none" xmlns="http://www.w3.org/2000/svg">
<path d="M18.1263 14.269C16.4582 14.269 15.1011 15.6261 15.1011 17.2942C15.1011 18.9623 16.4582 20.3194 18.1263 20.3194C19.7947 20.3194 21.1515 18.9623 21.1515 17.2942C21.1515 15.6261 19.7944 14.269 18.1263 14.269ZM18.1263 18.8068C17.2921 18.8068 16.6137 18.1284 16.6137 17.2942C16.6137 16.46 17.2921 15.7816 18.1263 15.7816C18.9605 15.7816 19.6389 16.46 19.6389 17.2942C19.6389 18.1284 18.9605 18.8068 18.1263 18.8068Z" fill="#0D0D0D"/>
<path d="M7.78987 14.269C6.12173 14.269 4.76465 15.6261 4.76465 17.2942C4.76465 18.9623 6.12173 20.3194 7.78987 20.3194C9.45801 20.3194 10.8151 18.9623 10.8151 17.2942C10.8151 15.6261 9.45801 14.269 7.78987 14.269ZM7.78987 18.8068C6.95568 18.8068 6.27726 18.1284 6.27726 17.2942C6.27726 16.46 6.95568 15.7816 7.78987 15.7816C8.62382 15.7816 9.30248 16.46 9.30248 17.2942C9.30248 18.1284 8.62405 18.8068 7.78987 18.8068Z" fill="#0D0D0D"/>
<path d="M20.163 5.60978C20.0344 5.35441 19.773 5.1933 19.4871 5.1933H15.5039V6.70591H19.0207L21.0801 10.802L22.4319 10.1223L20.163 5.60978Z" fill="#0D0D0D"/>
<path d="M15.8575 16.5629H10.1348V18.0755H15.8575V16.5629Z" fill="#0D0D0D"/>
<path d="M5.52116 16.5629H2.89935C2.4816 16.5629 2.14307 16.9015 2.14307 17.3192C2.14307 17.737 2.48164 18.0755 2.89935 18.0755H5.52121C5.93896 18.0755 6.27749 17.7369 6.27749 17.3192C6.27749 16.9015 5.93891 16.5629 5.52116 16.5629Z" fill="#0D0D0D"/>
<path d="M23.8413 11.9395L22.3537 10.0236C22.2108 9.83902 21.9902 9.73111 21.7565 9.73111H16.2607V4.43701C16.2607 4.01926 15.9221 3.68073 15.5044 3.68073H2.89935C2.4816 3.68073 2.14307 4.0193 2.14307 4.43701C2.14307 4.85471 2.48164 5.19329 2.89935 5.19329H14.7481V10.4874C14.7481 10.9051 15.0867 11.2437 15.5044 11.2437H21.3861L22.4876 12.6625V16.563H20.3951C19.9774 16.563 19.6388 16.9016 19.6388 17.3193C19.6388 17.737 19.9774 18.0756 20.3951 18.0756H23.2438C23.6616 18.0756 24.0001 17.737 24.0002 17.3193V12.4034C24.0002 12.2355 23.9442 12.0721 23.8413 11.9395Z" fill="#0D0D0D"/>
<path d="M5.47065 12.731H1.99163C1.57388 12.731 1.23535 13.0696 1.23535 13.4873C1.23535 13.905 1.57393 14.2436 1.99163 14.2436H5.4706C5.88835 14.2436 6.22688 13.905 6.22688 13.4873C6.22693 13.0696 5.88835 12.731 5.47065 12.731Z" fill="#0D0D0D"/>
<path d="M7.21008 9.75641H0.756281C0.338578 9.75641 0 10.095 0 10.5127C0 10.9305 0.338578 11.269 0.756281 11.269H7.21008C7.62783 11.269 7.96636 10.9304 7.96636 10.5127C7.96636 10.095 7.62783 9.75641 7.21008 9.75641Z" fill="#0D0D0D"/>
<path d="M8.44543 6.78156H1.99163C1.57388 6.78156 1.23535 7.12013 1.23535 7.53784C1.23535 7.95559 1.57393 8.29412 1.99163 8.29412H8.44543C8.86318 8.29412 9.20171 7.95554 9.20171 7.53784C9.20176 7.12013 8.86318 6.78156 8.44543 6.78156Z" fill="#0D0D0D"/>
</svg>
