<svg width="15" height="15" viewBox="0 0 15 15" fill="none" xmlns="http://www.w3.org/2000/svg">
<g clip-path="url(#clip0)">
<path d="M14.8675 2.98013L10.3184 7.50003L14.8675 12.0199C14.9498 11.848 14.9997 11.658 14.9997 11.4551V3.54495C14.9997 3.34201 14.9498 3.15202 14.8675 2.98013Z" fill="#212121"/>
<path d="M13.681 2.22656H1.31774C1.1148 2.22656 0.924814 2.27646 0.75293 2.35869L6.56728 8.14374C7.08138 8.65784 7.91739 8.65784 8.4315 8.14374L14.2458 2.35869C14.074 2.27646 13.884 2.22656 13.681 2.22656Z" fill="#212121"/>
<path d="M0.132129 2.98013C0.0498926 3.15202 0 3.34201 0 3.54495V11.4551C0 11.658 0.0498926 11.8481 0.132129 12.0199L4.68132 7.50003L0.132129 2.98013Z" fill="#212121"/>
<path d="M9.69665 8.12143L9.05291 8.76517C8.1963 9.62178 6.80244 9.62178 5.94583 8.76517L5.30212 8.12143L0.75293 12.6413C0.924814 12.7236 1.1148 12.7735 1.31774 12.7735H13.681C13.884 12.7735 14.074 12.7236 14.2458 12.6413L9.69665 8.12143Z" fill="#212121"/>
</g>
<defs>
<clipPath id="clip0">
<rect width="15" height="15" fill="white"/>
</clipPath>
</defs>
</svg>
