<svg width="25" height="25" viewBox="0 0 25 25" fill="none" xmlns="http://www.w3.org/2000/svg">
<path d="M6.64062 7.91016C7.17998 7.91016 7.61719 7.47295 7.61719 6.93359V0.976562C7.61719 0.437207 7.17998 0 6.64062 0C6.10127 0 5.66406 0.437207 5.66406 0.976562V6.93359C5.66406 7.47295 6.10127 7.91016 6.64062 7.91016Z" fill="#A3A3A3"/>
<path d="M10.3027 0C9.76338 0 9.32617 0.437207 9.32617 0.976562V7.08008C9.32617 8.56089 8.12144 9.76562 6.64062 9.76562C5.15981 9.76562 3.95508 8.56089 3.95508 7.08008V0.976562C3.95508 0.437207 3.51787 0 2.97852 0C2.43916 0 2.00195 0.437207 2.00195 0.976562V7.08008C2.00195 9.30288 3.57368 11.1653 5.66406 11.615V24.0234C5.66406 24.5628 6.10127 25 6.64062 25C7.17998 25 7.61719 24.5628 7.61719 24.0234V11.615C9.70757 11.1653 11.2793 9.30288 11.2793 7.08008V0.976562C11.2793 0.437207 10.8421 0 10.3027 0Z" fill="#A3A3A3"/>
<path d="M21.805 2.60488C20.8835 0.925049 19.6598 0 18.3594 0C17.0589 0 15.8353 0.925049 14.9137 2.60488C14.1667 3.96645 13.7207 5.63945 13.7207 7.08008C13.7207 9.30288 15.2924 11.1653 17.3828 11.615V24.0234C17.3828 24.5628 17.82 25 18.3594 25C18.8987 25 19.3359 24.5628 19.3359 24.0234V11.615C21.4263 11.1653 22.998 9.30288 22.998 7.08008C22.998 5.63945 22.552 3.96645 21.805 2.60488ZM18.3594 9.76562C16.8786 9.76562 15.6738 8.56089 15.6738 7.08008C15.6738 5.96973 16.0387 4.61489 16.626 3.54429C17.1645 2.56279 17.8287 1.95312 18.3594 1.95312C18.8901 1.95312 19.5542 2.56279 20.0927 3.54429C20.68 4.61489 21.0449 5.96973 21.0449 7.08008C21.0449 8.56089 19.8402 9.76562 18.3594 9.76562Z" fill="#A3A3A3"/>
</svg>
