<svg width="24" height="24" viewBox="0 0 24 24" fill="none" xmlns="http://www.w3.org/2000/svg">
<path d="M22.6957 8.08698H1.30434C0.585141 8.08698 0 8.67212 0 9.39132V21.1305C0 21.8497 0.585141 22.4348 1.30434 22.4348H22.6957C23.4149 22.4348 24 21.8497 24 21.1305V9.39132C24 8.67212 23.4149 8.08698 22.6957 8.08698ZM22.4348 20.8696H1.5652V9.65218H22.4347V20.8696H22.4348Z" fill="#0D0D0D"/>
<path d="M3.65217 8.08698C3.21989 8.08698 2.86955 8.43732 2.86955 8.8696V9.65223C2.86955 10.2374 2.4112 10.6957 1.82606 10.6957H0.782625C0.350344 10.6957 0 11.046 0 11.4783C0 11.9106 0.350344 12.2609 0.782625 12.2609H1.82611C3.26456 12.2609 4.4348 11.0906 4.4348 9.65223V8.8696C4.4348 8.43732 4.08445 8.08698 3.65217 8.08698Z" fill="#0D0D0D"/>
<path d="M23.2175 10.6956H22.4349C21.8498 10.6956 21.3914 10.2373 21.3914 9.65216V8.86954C21.3914 8.43726 21.0411 8.08691 20.6088 8.08691C20.1765 8.08691 19.8262 8.43726 19.8262 8.86954V9.65216C19.8262 11.0906 20.9965 12.2609 22.4349 12.2609H23.2175C23.6498 12.2609 24.0001 11.9105 24.0001 11.4782C24.0001 11.0459 23.6498 10.6956 23.2175 10.6956Z" fill="#0D0D0D"/>
<path d="M1.82611 18.2609H0.782625C0.350344 18.2609 0 18.6113 0 19.0436C0 19.4758 0.350344 19.8262 0.782625 19.8262H1.82611C2.41125 19.8262 2.86959 20.2845 2.86959 20.8697V21.6523C2.86959 22.0846 3.21994 22.4349 3.65222 22.4349C4.0845 22.4349 4.43484 22.0846 4.43484 21.6523V20.8697C4.4348 19.4312 3.26452 18.2609 1.82611 18.2609Z" fill="#0D0D0D"/>
<path d="M23.2171 18.2609H22.1736C20.7352 18.2609 19.5649 19.4312 19.5649 20.8696V21.6522C19.5649 22.0845 19.9153 22.4349 20.3476 22.4349C20.7798 22.4349 21.1302 22.0845 21.1302 21.6522V20.8696C21.1302 20.2845 21.5885 19.8261 22.1737 19.8261H23.2172C23.6494 19.8261 23.9998 19.4758 23.9998 19.0435C23.9998 18.6112 23.6494 18.2609 23.2171 18.2609Z" fill="#0D0D0D"/>
<path d="M21.1304 4.6958H2.86954C2.43726 4.6958 2.08691 5.04614 2.08691 5.47842C2.08691 5.9107 2.43726 6.26104 2.86954 6.26104H21.1304C21.5627 6.26104 21.913 5.9107 21.913 5.47842C21.913 5.04614 21.5627 4.6958 21.1304 4.6958Z" fill="#0D0D0D"/>
<path d="M18.7829 1.56512H5.21768C4.7854 1.56512 4.43506 1.91547 4.43506 2.34775C4.43506 2.78003 4.7854 3.13037 5.21768 3.13037H18.7829C19.2152 3.13037 19.5655 2.78003 19.5655 2.34775C19.5655 1.91547 19.2152 1.56512 18.7829 1.56512Z" fill="#0D0D0D"/>
<path d="M12.0001 10.9304C9.62677 10.9304 7.6958 12.861 7.6958 15.2347C7.6958 17.6081 9.62677 19.5391 12.0001 19.5391C14.3735 19.5391 16.3045 17.6081 16.3045 15.2347C16.3045 12.8613 14.3735 10.9304 12.0001 10.9304ZM12.0001 17.9738C10.4897 17.9738 9.26101 16.7451 9.26101 15.2347C9.26101 13.7242 10.4897 12.4953 12.0001 12.4953C13.5106 12.4953 14.7393 13.7243 14.7393 15.2347C14.7393 16.7451 13.5106 17.9738 12.0001 17.9738Z" fill="#0D0D0D"/>
</svg>
