<svg width="24" height="24" viewBox="0 0 24 24" fill="none" xmlns="http://www.w3.org/2000/svg">
<path d="M10.4011 22.125H5.01562C3.98181 22.125 3.1355 21.2838 3.1355 20.25V6.09375C3.1355 5.05994 3.98181 4.21875 5.01562 4.21875H7.96362V4.6875C7.96362 6.2384 9.22522 7.5 10.7761 7.5C12.3268 7.5 13.5886 6.2384 13.5886 4.6875V4.21875H16.5417C17.5756 4.21875 18.4167 5.05994 18.4167 6.09375V13.3125C18.4167 13.8303 18.8364 14.25 19.3542 14.25C19.8719 14.25 20.2917 13.8303 20.2917 13.3125V6.09375C20.2917 4.02594 18.6094 2.34375 16.5417 2.34375H13.5886V0.9375C13.5886 0.419678 13.1688 0 12.6511 0H8.90112C8.3833 0 7.96362 0.419678 7.96362 0.9375V2.34375H5.01562C2.94781 2.34375 1.26562 4.02594 1.26562 6.09375V20.25C1.26562 22.3178 2.94781 24 5.01562 24H10.4011C10.9188 24 11.3386 23.5803 11.3386 23.0625C11.3386 22.5447 10.9188 22.125 10.4011 22.125ZM9.83862 1.875H11.7136V4.6875C11.7136 5.20441 11.293 5.625 10.7761 5.625C10.259 5.625 9.83862 5.20441 9.83862 4.6875V1.875ZM22.5991 16.5771L17.9594 23.0579C17.9491 23.072 17.9387 23.0859 17.9279 23.0995C17.5065 23.6237 16.8801 23.95 16.2092 23.9947C16.1561 23.9982 16.103 24 16.0501 24C15.4341 24 14.8354 23.7625 14.387 23.3355L11.3923 20.46C11.0189 20.1015 11.0068 19.5081 11.3655 19.1345C11.7239 18.7612 12.3175 18.7489 12.691 19.1078L15.6826 21.9802C15.8278 22.1184 15.9968 22.1294 16.0844 22.1239C16.1691 22.1182 16.3273 22.0865 16.4535 21.9402L21.0745 15.4856C21.3757 15.0646 21.9613 14.9676 22.3824 15.269C22.8034 15.5704 22.9005 16.1559 22.5991 16.5771ZM7.72925 11.2031C7.72925 11.7209 7.30939 12.1406 6.79175 12.1406H6.323C5.80518 12.1406 5.3855 11.7209 5.3855 11.2031C5.3855 10.6853 5.80518 10.2656 6.323 10.2656H6.79175C7.30939 10.2656 7.72925 10.6853 7.72925 11.2031ZM16.2605 11.2031C16.2605 11.7209 15.8406 12.1406 15.323 12.1406H10.073C9.55518 12.1406 9.1355 11.7209 9.1355 11.2031C9.1355 10.6853 9.55518 10.2656 10.073 10.2656H15.323C15.8406 10.2656 16.2605 10.6853 16.2605 11.2031ZM7.72925 14.9531C7.72925 15.4709 7.30939 15.8906 6.79175 15.8906H6.323C5.80518 15.8906 5.3855 15.4709 5.3855 14.9531C5.3855 14.4353 5.80518 14.0156 6.323 14.0156H6.79175C7.30939 14.0156 7.72925 14.4353 7.72925 14.9531ZM16.2605 14.9531C16.2605 15.4709 15.8406 15.8906 15.323 15.8906H10.073C9.55518 15.8906 9.1355 15.4709 9.1355 14.9531C9.1355 14.4353 9.55518 14.0156 10.073 14.0156H15.323C15.8406 14.0156 16.2605 14.4353 16.2605 14.9531Z" fill="#A3A3A3"/>
</svg>
