<svg width="24" height="24" viewBox="0 0 24 24" fill="none" xmlns="http://www.w3.org/2000/svg">
<path d="M20.7173 22.1229L19.434 7.89195C19.399 7.50331 19.0719 7.20563 18.6801 7.20563H16.0338V6.01711C16.0338 3.80208 14.2242 2 11.9999 2C9.77574 2 7.96636 3.80208 7.96636 6.01711V7.20563H5.31819C4.9264 7.20563 4.5993 7.50331 4.56428 7.89195L3.27598 22.1789C3.257 22.3898 3.32785 22.5987 3.47127 22.7549C3.61468 22.9111 3.81744 23 4.02988 23H19.9685C19.9691 23 19.97 23 19.9706 23C20.3887 23 20.7275 22.6625 20.7275 22.2462C20.7274 22.2043 20.724 22.163 20.7173 22.1229ZM9.48023 6.01711C9.48023 4.63332 10.6106 3.50751 12 3.50751C13.3896 3.50751 14.52 4.63332 14.52 6.01711V7.20563H9.48023V6.01711ZM4.85787 21.4926L6.01023 8.71314H7.96636V10.0611C7.96636 10.4773 8.30516 10.8148 8.72329 10.8148C9.14142 10.8148 9.48023 10.4773 9.48023 10.0611V8.71314H14.52V10.0611C14.52 10.4773 14.8588 10.8148 15.2769 10.8148C15.6951 10.8148 16.0339 10.4773 16.0339 10.0611V8.71314H17.9882L19.1406 21.4926H4.85787Z" fill="#0D0D0D"/>
</svg>
